# xmcd
#
# Track frame offsets:
#	150
#	16715
#	35168
#	50873
#	63545
#	80013
#	98990
#	113405
#	129053
#	145420
#
# Disc length: 2174 seconds
#
# Revision: 5
# Processed by: cddbd v1.5.2PL0 Copyright (c) Steve Scherf et al.
# Submitted via: EZCDAudioConverter 6.0.8.1
#
DISCID=85087c0a
DTITLE=Billy Dean - Men'll Be Boys
DYEAR=1994
DGENRE=Country
TTITLE0=Cowboy Band
TTITLE1=Wish You Were Here
TTITLE2=I Can't Find The Words To Say Goodbye
TTITLE3=Men Will Be Boys
TTITLE4=Pay Attention
TTITLE5=Starting Over Again
TTITLE6=Love and Bide
TTITLE7=Indian Head Penny
TTITLE8=I Will Be Here
TTITLE9=Misery And Gin
EXTD=
EXTT0=
EXTT1=
EXTT2=
EXTT3=
EXTT4=
EXTT5=
EXTT6=
EXTT7=
EXTT8=
EXTT9=
PLAYORDER=
